# File created by Blade
# Date/Time:  Wed Jan 21 16:27:48 2015
#---------------------------------------------------------
:version 1.10
:name HOM
:units
  mass 1.0
  length 1.000000
  angle deg
:documentation
     Acclaim Skeleton File
:root
   axis xyz
   order TX TY TZ RX RY RZ
   position 0.000000 0.000000 0.000000
   orientation 0 0 0
:bonedata
   begin
      id 1
      name Spine_dum
      direction 0.000000 1.000000 0.000000
      length 7.067664
      axis 0.0 0.0 0.0 xyz
   end
   begin
      id 2
      name LeftUpLeg_dum
      direction 1.000000 0.000000 0.000000
      length 4.013002
      axis 0.0 0.0 0.0 xyz
   end
   begin
      id 3
      name RightUpLeg_dum
      direction -1.000000 0.000000 0.000000
      length 4.013002
      axis 0.0 0.0 0.0 xyz
   end
   begin
      id 4
      name Spine
      direction 0.000000 1.000000 0.000000
      length 0.000000
      axis 0.0 0.0 0.0 xyz
      dof rx ry rz
   end
   begin
      id 5
      name Spine_dum1
      direction 0.000000 1.000000 0.000000
      length 15.039886
      axis 0.0 0.0 0.0 xyz
   end
   begin
      id 6
      name Spine_dum2
      direction 0.000000 1.000000 0.000000
      length 10.530368
      axis 0.0 0.0 0.0 xyz
   end
   begin
      id 7
      name Spine_dum3
      direction 0.000000 1.000000 0.000000
      length 10.530368
      axis 0.0 0.0 0.0 xyz
   end
   begin
      id 8
      name Head
      direction 0.000000 1.000000 0.000000
      length 4.527550
      axis 0.0 0.0 0.0 xyz
      dof rx ry rz
   end
   begin
      id 9
      name LeftShoulder
      direction 1.000000 0.000000 0.000000
      length 7.028855
      axis 0.0 0.0 -90.0 xyz
      dof rx ry rz
   end
   begin
      id 10
      name LeftArm
      direction 1.000000 0.000000 0.000000
      length 10.797705
      axis 0.0 0.0 -90.0 xyz
      dof rx ry rz
   end
   begin
      id 11
      name LeftForeArm
      direction 1.000000 0.000000 0.000000
      length 7.907442
      axis 0.0 0.0 -90.0 xyz
      dof ry rz rx
   end
   begin
      id 12
      name LeftHand
      direction 0.000000 0.000000 0.000000
      length 0.000000
      axis 0.0 0.0 -90.0 xyz
      dof rx ry rz
   end
   begin
      id 13
      name LeftHand_dum1
      direction 0.000000 0.000000 0.000000
      length 0.000000
      axis 0.0 0.0 -90.0 xyz
   end
   begin
      id 14
      name LeftHand_dum2
      direction 1.000000 0.000000 0.000000
      length 3.937000
      axis 0.0 0.0 -90.0 xyz
   end
   begin
      id 15
      name LeftHandThumb1
      direction 0.000000 0.000000 1.000000
      length 3.937000
      axis 0.0 0.0 -90.0 xyz
      dof rx rz ry
   end
   begin
      id 16
      name RightShoulder
      direction -1.000000 0.000000 0.000000
      length 7.028855
      axis 0.0 0.0 90.0 xyz
      dof rx ry rz
   end
   begin
      id 17
      name RightArm
      direction -1.000000 0.000000 0.000000
      length 10.797705
      axis 0.0 0.0 90.0 xyz
      dof rx ry rz
   end
   begin
      id 18
      name RightForeArm
      direction -1.000000 0.000000 0.000000
      length 7.907442
      axis 0.0 0.0 90.0 xyz
      dof ry rz rx
   end
   begin
      id 19
      name RightHand
      direction 0.000000 0.000000 0.000000
      length 0.000000
      axis 0.0 0.0 90.0 xyz
      dof rx ry rz
   end
   begin
      id 20
      name RightHand_dum1
      direction 0.000000 0.000000 0.000000
      length 0.000000
      axis 0.0 0.0 90.0 xyz
   end
   begin
      id 21
      name RightHand_dum2
      direction -1.000000 0.000000 0.000000
      length 3.937000
      axis 0.0 0.0 90.0 xyz
   end
   begin
      id 22
      name RightHandThumb1
      direction 0.000000 0.000000 1.000000
      length 3.937000
      axis 0.0 0.0 90.0 xyz
      dof rx rz ry
   end
   begin
      id 23
      name LeftUpLeg
      direction 0.000000 -1.000000 0.000000
      length 16.899758
      axis 0.0 0.0 0.0 xyz
      dof rx ry rz
   end
   begin
      id 24
      name LeftLeg
      direction 0.000000 -1.000000 0.000000
      length 17.389183
      axis 0.0 0.0 0.0 xyz
      dof rx ry rz
   end
   begin
      id 25
      name LeftFoot
      direction 0.000000 -0.258819 0.965926
      length 4.924528
      axis 15.0 0.0 0.0 xyz
      dof rx ry rz
   end
   begin
      id 26
      name LeftToeBase
      direction 0.000000 0.000000 1.000000
      length 2.952750
      axis 0.0 0.0 0.0 xyz
      dof rx ry rz
   end
   begin
      id 27
      name RightUpLeg
      direction 0.000000 -1.000000 0.000000
      length 16.899758
      axis 0.0 0.0 0.0 xyz
      dof rx ry rz
   end
   begin
      id 28
      name RightLeg
      direction 0.000000 -1.000000 0.000000
      length 17.389183
      axis 0.0 0.0 0.0 xyz
      dof rx ry rz
   end
   begin
      id 29
      name RightFoot
      direction 0.000000 -0.258819 0.965926
      length 4.924528
      axis 15.0 0.0 0.0 xyz
      dof rx ry rz
   end
   begin
      id 30
      name RightToeBase
      direction 0.000000 0.000000 1.000000
      length 2.952750
      axis 0.0 0.0 0.0 xyz
      dof rx ry rz
   end
:hierarchy
   begin
      root Spine_dum LeftUpLeg_dum RightUpLeg_dum
      Spine_dum Spine
      LeftUpLeg_dum LeftUpLeg
      RightUpLeg_dum RightUpLeg
      Spine Spine_dum1 Spine_dum2 Spine_dum3
      Spine_dum1 Head
      Spine_dum2 LeftShoulder
      Spine_dum3 RightShoulder
      LeftShoulder LeftArm
      LeftArm LeftForeArm
      LeftForeArm LeftHand
      LeftHand LeftHand_dum1 LeftHand_dum2
      LeftHand_dum1 LeftHandThumb1
      RightShoulder RightArm
      RightArm RightForeArm
      RightForeArm RightHand
      RightHand RightHand_dum1 RightHand_dum2
      RightHand_dum1 RightHandThumb1
      LeftUpLeg LeftLeg
      LeftLeg LeftFoot
      LeftFoot LeftToeBase
      RightUpLeg RightLeg
      RightLeg RightFoot
      RightFoot RightToeBase
   end

# File created by Blade
# Date/Time:  Wed Jan 21 16:27:40 2015
# Frame Rate: 120.000 fps
#------------------------------------------------------
:FULLY-SPECIFIED
:DEGREES
1
root 19.902039 35.338349 -24.446001 -175.461767 -5.418984 -178.680328
Spine -14.240322 0.628996 0.560439
Head 6.958656 -3.889694 -0.569724
LeftShoulder -12.462668 -33.318951 21.733822
LeftArm 3.506386 -1.385530 -5.532906
LeftForeArm 6.455644 -0.000000 -2.527965
LeftHand -7.757709 -0.000000 -9.182288
LeftHandThumb1 -26.253704 0.000000 33.147579
RightShoulder -13.105506 -6.633807 -12.145324
RightArm 2.667731 42.931608 7.068066
RightForeArm -36.220719 -0.000000 5.904109
RightHand -8.272385 0.000000 10.904158
RightHandThumb1 -24.326973 -0.000000 -32.862282
LeftUpLeg 6.031981 6.216309 2.453490
LeftLeg -6.292393 -0.000000 0.000000
LeftFoot -22.177209 27.826717 -12.027878
LeftToeBase 25.942317 -0.000000 -0.000000
RightUpLeg 5.412782 -7.211743 0.798443
RightLeg -3.297275 -0.000000 0.000000
RightFoot -23.620204 -24.993168 16.507968
RightToeBase 22.543055 -0.000000 -0.000000
2
root 19.902643 35.337938 -24.447138 -175.475726 -5.413721 -178.688185
Spine -14.222975 0.627613 0.562803
Head 6.972664 -3.879230 -0.585652
LeftShoulder -12.476204 -33.311285 21.735068
LeftArm 3.510003 -1.400446 -5.553455
LeftForeArm 6.488575 -0.000000 -2.526243
LeftHand -7.762737 -0.000000 -9.169171
LeftHandThumb1 -26.253704 0.000000 33.147579
RightShoulder -13.120958 -6.621333 -12.132512
RightArm 2.689220 42.929478 7.064390
RightForeArm -36.186865 -0.000000 5.878129
RightHand -8.220338 -0.000000 10.931021
RightHandThumb1 -24.326973 -0.000000 -32.862282
LeftUpLeg 6.040587 6.230793 2.448515
LeftLeg -6.275249 -0.000000 0.000000
LeftFoot -22.179170 27.814130 -12.019353
LeftToeBase 25.940924 -0.000000 -0.000000
RightUpLeg 5.427677 -7.200226 0.790215
RightLeg -3.295649 -0.000000 0.000000
RightFoot -23.626898 -25.004544 16.501591
RightToeBase 22.552836 -0.000000 -0.000000
3
root 19.904066 35.337438 -24.448705 -175.496438 -5.419516 -178.691552
Spine -14.200276 0.620207 0.573707
Head 6.988001 -3.876034 -0.624825
LeftShoulder -12.470852 -33.310050 21.716081
LeftArm 3.509386 -1.374315 -5.554615
LeftForeArm 6.471415 -0.000000 -2.528547
LeftHand -7.788856 0.000000 -9.178799
LeftHandThumb1 -26.253704 0.000000 33.147579
RightShoulder -13.127438 -6.619319 -12.137897
RightArm 2.688082 42.903290 7.070894
RightForeArm -36.176994 -0.000000 5.851364
RightHand -8.241172 -0.000000 10.908194
RightHandThumb1 -24.326973 -0.000000 -32.862282
LeftUpLeg 6.064411 6.206842 2.450521
LeftLeg -6.276742 -0.000000 0.000000
LeftFoot -22.192337 27.813048 -12.053100
LeftToeBase 25.940522 -0.000000 -0.000000
RightUpLeg 5.451780 -7.205998 0.786629
RightLeg -3.295452 -0.000000 0.000000
RightFoot -23.633193 -25.000154 16.502971
RightToeBase 22.524514 -0.000000 -0.000000
4
root 19.905028 35.336945 -24.450079 -175.516006 -5.416289 -178.690476
Spine -14.174387 0.611700 0.590684
Head 6.993663 -3.855862 -0.642271
LeftShoulder -12.483822 -33.299577 21.711670
LeftArm 3.504718 -1.382485 -5.562748
LeftForeArm 6.493940 0.000000 -2.535596
LeftHand -7.781740 -0.000000 -9.176663
LeftHandThumb1 -26.253704 0.000000 33.147579
RightShoulder -13.136128 -6.623496 -12.139586
RightArm 2.699181 42.906354 7.093642
RightForeArm -36.178636 0.000000 5.864966
RightHand -8.255099 -0.000000 10.926970
RightHandThumb1 -24.326973 -0.000000 -32.862282
LeftUpLeg 6.076443 6.233408 2.457601
LeftLeg -6.256882 -0.000000 0.000000
LeftFoot -22.186516 27.799371 -12.008940
LeftToeBase 25.960105 -0.000000 -0.000000
RightUpLeg 5.473214 -7.208200 0.786046
RightLeg -3.293520 -0.000000 0.000000
RightFoot -23.636522 -24.992431 16.483180
RightToeBase 22.567841 -0.000000 -0.000000
